<?xml version="1.0" encoding="UTF-8"?>
<svg id="Layer_2" data-name="Layer 2" xmlns="http://www.w3.org/2000/svg" viewBox="0 0 2122.86 2122.86">
  <defs>
    <style>
      .cls-1 {
        fill: #58c68c;
        stroke-width: 0px;
      }
    </style>
  </defs>
  <g id="Layer_1-2" data-name="Layer 1">
    <path class="cls-1" d="m1061.43,0C475.22,0,0,475.22,0,1061.43s475.22,1061.43,1061.43,1061.43,1061.43-475.22,1061.43-1061.43S1647.64,0,1061.43,0Zm518.97,1815.67c-24.61,5.68-45.43,7.57-66.25,7.57-60.57,0-105.99-18.93-141.95-60.57-96.53-107.88-94.64-340.69-66.24-516.71,18.93-121.13,39.75-223.34,39.75-223.34,1.89-15.14-7.57-28.39-22.71-32.18-13.25-1.89-28.39,7.57-30.28,20.82-1.89,3.79-18.93,100.31-41.64,225.23-51.1,266.87-123.03,369.08-162.77,372.86-17.03,1.89-88.96-18.93-225.23-282.02-45.43-87.06-75.71-155.2-77.6-157.09-7.57-13.25-24.6-17.03-37.85-11.36-11.36,7.57-17.03,22.71-11.36,35.96,0,3.79,37.85,70.03,77.6,157.09,81.39,174.13,98.42,312.3,64.35,389.9-15.14,32.18-39.75,53-75.71,66.25-81.39,28.39-187.38-28.39-283.91-149.52-166.56-210.09-304.73-617.03-213.88-1016.39,41.64-185.49,130.6-283.91,253.62-283.91,208.2,0,478.86,287.69,488.32,609.45,0,15.14,9.46,28.39,28.39,28.39,0,0,26.5,1.89,26.5-28.39,0-5.68,9.46-654.88,370.97-668.13h3.79c179.81,0,325.55,376.65,361.51,740.05,35.96,353.94-30.28,730.59-257.41,776.01Z"/>
  </g>
</svg>